<?xml version="1.0" encoding="UTF-8"?>
<svg id="Calque_1" xmlns="http://www.w3.org/2000/svg" version="1.1" viewBox="0 0 612 92">
  <!-- Generator: Adobe Illustrator 30.4.0, SVG Export Plug-In . SVG Version: 2.1.4 Build 226)  -->
  <defs>
    <style>
      .st0 {
        fill: #fff;
      }
    </style>
  </defs>
  <path class="st0" d="M175.42,75.11l-36.11.02c3.53-1.27,6.4-2.37,6.67-6.35l.49-7.06.02-38.83-.43-6.56c-.28-4.25-3.03-5.12-7.06-6.71l31.65-.05c3.86,0,7.92,1.25,11.04,3.28,4.94,3.22,6.93,8.96,5.6,14.5-1.24,5.18-5.4,9.02-11.32,10.75,5.73.98,11.35,2.28,15.52,6.75,6.24,6.68,6.03,17.87-.64,24.26-4.01,3.84-9.54,6-15.43,6ZM180.53,43.22c-6.51-5.53-14.79-2.62-21.85-4.41,2.8-.76,5.3-.96,8.03-1.07,6.93-.27,11.42-5.39,11.74-12.16.25-5.27-1.65-10.54-6.72-12.82-3.68-1.66-8.13-1.67-12.09-1.01-2.51.42-3.92,2.53-3.92,5.14l-.02,51.22c0,3.07,2,5.29,4.91,5.26l11.59-.13c7.4-.08,12.92-5.53,13.99-12.69.94-6.35-.51-12.95-5.67-17.33Z"/>
  <path class="st0" d="M279.28,77.98l-42.41-58.7-.06,41.34.93,6.73c1.3,4.61,4.82,6.36,9.29,7.71l-21.58.02c3.66-1.34,6.65-2.52,7.83-6.42.66-2.16,1.25-4.98,1.24-7.51l-.04-42.09c0-5.51-3.7-8.17-9.02-9.33l16.27-.23,35.45,49.23.18-35.95c0-1.89-.64-4.39-1.11-6.03-1.28-4.43-4.71-5.51-9.14-7.13l22.24.02c-4.66,1.59-8.13,3.48-9.12,8.4l-.66,6.46-.29,53.47Z"/>
  <path class="st0" d="M54.45,45.02c-.88-2-4.59-1.69-6.34-.73-9.08,4.99-16.96,11.83-23.1,20.13-1.46,1.97-1.77,4.89-.64,6.99.93,1.72,3.17,2.59,5.79,3.7l-23.08-.09c5.18-1.32,9.39-3.96,11.68-9.11L40.96,15.96c1.25-2.81-1.85-4.9-4.18-6.71l12.87-.13,25.66,58.32c1.9,4.31,4.91,6.28,9.42,7.68l-26.09.08c1.8-.99,3.65-1.58,4.67-2.75.96-1.11,1.33-4.16.65-5.71l-9.51-21.72ZM40.08,46.48c4.09-2.78,7.78-5.14,12.11-7.1l-9.56-21.35-15.65,37.31c-.04.4-.15,1.13.09,1.24l1.02.5,11.99-10.6Z"/>
  <path class="st0" d="M602.47,67.25c-6.13,9.97-22.69,10.46-33.47,6.86l-10.12-3.38-.67-21.43c3.24,8.26,6.53,15.56,13.19,20.67,5.89,4.52,13.14,5.88,19.82,2.66,6.06-2.92,8.27-10.15,4.57-15.94-1.53-2.39-3.97-4.78-6.59-6.06l-15.72-7.69c-10.09-4.93-16.72-12.3-13.11-22.93,4.62-13.62,26.14-14.11,38.5-6.33l-.25,15.98c-2.44-6.11-4.37-11.46-9-15.66-5.17-4.69-13.32-5.04-18.87-.86-4.64,3.5-5.32,9.91-1.65,14.22,2.05,2.4,4.64,4.49,7.47,5.85l9.36,4.48c4.15,1.99,8.09,3.82,11.81,6.63,7.06,5.33,9.47,15.22,4.75,22.92Z"/>
  <path class="st0" d="M390.22,9.62l22.42-.03c-2.95,1.59-5.95,1.82-7.41,4.97-.99,2.13-1.72,5.14-1.73,7.68l-.12,31.17c-.01,3.51-1.3,7.35-2.71,10.49-5.14,11.43-19.31,14.61-31.07,10.61-8.14-2.77-14.35-9.94-14.46-18.93l-.45-38.22c-.05-4.55-2.75-6.38-7.22-7.68l25.14-.02c-2.44,1.09-4.56,1.41-6.09,2.63s-2.31,4.05-2.31,6.25v35.94c-.01,5.5,2.39,11.08,6.85,14.2,6.92,4.84,16.81,4.3,23.34-1.05,4.22-3.46,6.61-9.03,6.62-14.46l.05-30.65c0-3.06-.97-6.5-2.8-8.81-1.94-2.45-4.86-2.52-8.05-4.06Z"/>
  <path class="st0" d="M534.55,9.62l22,.13c-2.83,1.41-5.46,1.85-6.81,4.19s-2.1,5.51-2.12,8.34l-.14,31.13c-.02,4.95-1.81,9.83-4.51,13.82-7.41,10.96-27.18,11.97-37.24,2.36-4.17-3.99-6.5-9.76-6.53-15.62l-.12-21.13-.21-16.32c-.05-4.24-3.08-5.46-7.2-6.83l25.02.11c-4.8,1.11-8.19,3.08-8.21,8.09l-.15,35c-.02,5.63,1.64,11.67,6.09,15.26,6.08,4.91,14.91,4.89,21.78,1.1,5.34-2.95,8.89-9.12,8.91-15.36l.09-31.55c0-2.98-1.23-6.49-2.9-8.7-1.94-2.56-4.98-2.51-7.77-4Z"/>
  <path class="st0" d="M137.15,51.79l-4.01,23.48-44.9-.14c4.27-1.07,7.35-3.24,7.36-8.06l.12-45.89c0-2.81-.29-5.73-1.48-8.16-1-2.04-3.71-2.26-5.97-3.48l25.3.06c-2.45,1.11-4.51,1.38-6.07,2.65-1.43,1.16-2.35,3.98-2.35,6.21v54.91s11.01-.15,11.01-.15c11.44-.16,16.11-11.39,21-21.44Z"/>
  <path class="st0" d="M455.32,65.97c3.48-4.55,5.36-9.16,8.11-14.43l-4.3,23.73-44.05-.09c2.01-1.18,4.53-1.41,5.46-3.07,1.28-2.27,1.7-5.19,1.7-7.87l-.02-46.49c0-4.7-2.65-6.7-7.35-8.1l24.94-.02c-2.47,1.44-5.22,1.12-6.61,3.43-1.1,1.82-1.47,4.67-1.47,6.99l-.1,34.3.19,19.02,10.04-.11c5.47-.06,10-3.04,13.45-7.28Z"/>
  <path class="st0" d="M337.37,60.58c-.09,14.2-11.06,24.13-24.51,25.5,5.02-2.55,9.13-5.31,11.54-10.12,2.66-5.31,3.8-10.98,3.78-17.06l-.14-41.53c-.02-4.72-3.12-6.33-7.65-7.74h24.64s-5.37,2.38-5.37,2.38c-1.18.53-2.02,3.3-2.03,4.93l-.26,43.63Z"/>
  <path class="st0" d="M489.04,75.04l-23.93.05c1.98-.84,3.97-1.24,5.29-2.46,1.06-.97,1.99-3.73,1.99-5.51l.07-47.63c0-2.24-.49-5.06-1.55-6.77-1.18-1.89-3.71-1.79-5.88-3.13l24.3.11c-4.29,1.19-7.2,2.82-7.25,7.26l-.3,25.3.38,26.29c.05,3.77,2.93,5.4,6.88,6.47Z"/>
  <path class="st0" d="M215.87,68.98c.33,3.99,3.16,4.91,6.65,6.1h-23.7c3.72-1.1,6.73-2.46,6.82-6.26l.47-19.34-.2-32.23c-.03-4.58-3-6.23-7.2-7.63l24.1.04c-3.74,1.35-6.59,2.21-6.93,6.21l-.51,5.97v40.93s.5,6.2.5,6.2Z"/>
</svg>