<?xml version="1.0" encoding="UTF-8"?>
<svg id="Calque_1" xmlns="http://www.w3.org/2000/svg" version="1.1" viewBox="0 0 403.69 85.25">
  <!-- Generator: Adobe Illustrator 30.5.0, SVG Export Plug-In . SVG Version: 2.1.4 Build 167)  -->
  <defs>
    <style>
      .st0 {
        fill: #fff;
      }
    </style>
  </defs>
  <path class="st0" d="M55.54,71.38l2.5-21.55c.53-4.54,2.05-8.1,5.34-11.27l2.92-2.81-1.47,15.63c7.63-.1,13.88-2.72,14.76-10.8.33-2.98-.38-6.06-2.85-7.99-1.75-1.37-4.46-1.93-6.66-1.49-7.36,1.46-10.98,8.86-16.39,10.69l-3.02,1.02c2.57-.1,4.45-.67,6.86-1.44-1.98,2.21-4.18,3.99-6.68,5.52l-6.2,3.8,6.23-1.82c-2.95,3.65-7.4,4.47-10.6,7.01l-4.88,13.41-5.05-1.18c4.59-9.75,9.96-20.6,16.6-30.14l5.94-7.91c9.31-12.38,26.07-25.49,42.03-27.8l-6.28,6.18c-3.98,3.91-6.06,2.41-10.21,4.68l6.2-.57-9.25,5.19c1.28.14,2-.08,3.7-.35l-6.1,6.78c-3.99,4.43-9.19,3.34-13.23,6.1l5.03-.97c6.78-1.31,16.98-2.16,21.03,2.94,3.28,4.13,2.32,10.04-1.35,13.67-2.53,2.5-5.58,3.87-9.06,5.38,6.07.48,12.99,2.46,15,8.18,1.2,3.41.81,7.48-1.03,10.6-3.82,6.5-11.77,8.44-19.25,8.36l-24.2-.26c1.48-.85,2.85-.96,4.34-1.22,2.77-.48,4.94-2.48,5.3-5.58ZM77.85,74.15c5.7-4.16,6.96-11.93,2.4-17.13-2.34-2.67-5.88-4.39-9.41-4.32l-6.1.12-1.48,19.93c-.15,2.08,1.23,3.45,3.22,3.59,3.94.28,8.01.25,11.37-2.19Z"/>
  <path class="st0" d="M131.79,64.99l-1.1-14.72-1.33-15.86-6.63,16.76c-1.62,4.09-3.73,7.82-6.38,11.3-3.41,4.46-8.84,6.81-12.56,3.86-1.6-1.27-2.66-3.42-2.19-5.89.98,2.41,3.03,3.86,5.8,3.72,5.35-.28,9.49-6.87,12.07-11.94,3.33-6.54,6.03-13.17,8.61-20.06,1.16-3.1-.3-6.29-3.51-7.31-4.38-1.4-8.88.29-12.03,3.58-2.49,2.61-3.86,6.03-2.68,9.65.58,1.8,2.46,2.75,4.23,3.86-2.18.42-4.98-.23-6.36-2.17-1.82-2.56-1.27-5.89.07-8.65,2.87-5.91,9.11-8.98,15.66-8.74,8.37.31,10.49,6.96,11.04,15l.94,13.67.06,4.23,14.7-23.72,2.86-4.87c2.88-.28,5.69-.37,8.9-.03-2.62,1.65-5.54.55-6.31,4.06l-6.3,28.63c-.18.81.06,2.42.54,2.9.54.53,1.95.71,3.1.87-1.82,1.29-4.71,2.01-6.83.63-1.15-.75-1.21-2.82-.93-4.14l5.37-25.17-15.96,26.3c-.89,1.46-1.15,2.69-2.86,4.24Z"/>
  <path class="st0" d="M12.99,60.01c-.08,2.71,1.85,4.32,4.25,4.65l5.27.71-.03.72-22.48-.07c1.09-.87,2.22-.87,3.36-1.02,3.14-.4,5.15-2.73,5.54-5.92l4.51-36.97c.3-2.49-1.67-4.44-3.91-4.69-1.75-.19-3.2-.23-4.91-1.01,5.69-.33,10.74-.22,16.54-.27l12.2,33.55,1.81,6.08-4.39,7.56L15.91,23.93l-2.72,29.66-.2,6.42Z"/>
  <path class="st0" d="M48.76,18.54c-.7,2.28-1.4,4.35-1.51,6.69,1.33-3.08,2.55-6.28,4.99-8.74l4.67-4.7-.1,2.94c1.88-3.48,4.61-5.77,8.1-7.61,2.4-1.27,4.62-2.5,7.22-3.16l-1.73,4.07c2.11-2.7,3.82-4.97,7.17-5.96,6.52-1.93,13.62-2.92,20.68-1.08-7.65,1.03-14.8,3.23-21.46,7.06-9.23,5.32-17.27,12.11-24,20.37-6.22,7.63-11.57,15.3-16.06,24.08-.81-1.84-1.54-3.91-1.77-5.65,1.12-4.85,2.38-9.24,4.51-13.99l.12,4.72c1.54-7.03,4.3-13.5,9.16-19.04Z"/>
  <path class="st0" d="M399.65,75.48l-74.63.05-220.08-.03,3.21-.76,16.57-.14,77.75-.93,106.45-.05,76.55.96,11.14.21c.64.01,1.85.34,3.04.68Z"/>
  <path class="st0" d="M276.78,28.24l-2.59,7.43-6.54,18.95c-1.02,2.95-2.92,5.28-5.04,7.45,3.82,1.46,8.03,2.1,12.04,1.17,5.01-1.17,8.64-5.69,8.2-10.68-.29-3.32-2.25-5.66-5.39-6.51-1.84-.5-3.77-.52-5.65-1.36,3.47-.78,6.35-1.11,9.18-2.64,3.52-1.89,5.62-5.7,5.07-9.68-.38-2.71-2.45-4.66-5.13-5.14-7.37-1.33-15.7-.06-19.9,6.27-1.74,2.63-1.92,6.83.37,9.01-3.37.04-5.68-2.94-5.08-6.29.42-2.33,1.73-4.3,3.56-5.84,4.39-3.71,9.88-5.16,15.65-5.23,3.82-.05,7.58-.03,10.97,1.62,3.21,1.56,4.96,4.72,4.24,8.2-1.27,6.15-6.96,8.24-12.64,9.77,3.88.54,7.55,1.87,9.02,5.4,1.91,4.57-.34,9.52-4.29,12.27-5.79,4.04-15.06,3.55-21.67.9-3.35,1.72-6.62,3.2-10.39,1.91-.7-.24-1.33-1.1-1.25-1.82,3.74,2.19,8.2.61,10.63-2.91,1.71-2.48,3.01-5.24,4-8.16l5.07-14.95,2.55-5.67c.85-1.88,2.43-3.14,4.99-3.48Z"/>
  <path class="st0" d="M382.24,64.14c-1.95-.68-1.74-3.18-1.38-4.62l2.87-11.5c-1.5.32-2.51.91-3.35,1.89-3.58,4.15-5.86,8.84-7.37,14.12h-3.61s6.04-24.18,6.04-24.18l1.32-6.48-3.01-.2c2.86-1.9,5.28-2.81,8.44-3.4l-6.92,24.66c2.93-3.66,5.47-8.96,9.78-8.96,1.9,0,2.77,1.89,2.34,3.6l-2.9,11.48c-.15.58.55,1.91.87,1.95l2.88-1.47c-.83,2.37-3.67,3.93-6.02,3.11Z"/>
  <path class="st0" d="M331.23,58.66c-2.28,3.59-6,7.37-8.96,5.41-3.45-2.28-.87-12.66,5.86-17.22,2.12-1.43,4.55-1.59,6.56-.41l3.29-12.84-3.13-.58,8.16-3.3-7.83,28.42c-.38,1.4-.35,2.41-.31,4.31l3.79-1.8c-1.12,2.69-4.94,4.72-6.59,3.38-.42-.34-.93-1.43-.92-1.97l.09-3.41ZM325.57,62.15c4.52-1.8,7.28-9.23,8.6-14.15-1.04-.96-2.82-.79-3.92.13-3.74,3.16-7.28,10.28-4.68,14.01Z"/>
  <path class="st0" d="M189.56,61.16c-1.5,2.76-4.79,4.21-6.59,2.63-.45-.4-.9-1.63-.8-2.24l.62-3.86c-1.64,2.27-2.98,4.33-5.08,6.03-1.18.96-3.25,1.08-4.26-.13-.96-1.15-.99-3.16-.57-4.62l3.08-10.69-3.21.86c1.55-2.37,5.2-4.31,6.51-3.35.35.25.61,1.39.47,1.91l-3.07,11.13c-.25.91-.14,1.98.28,3.18.93-.41,1.98-1.18,2.57-1.95,3.21-4.16,5-8.54,6.49-13.67.66-.71,2.52-.81,3.42-.55l-3.38,13.32c-.23.89-.18,2.29.11,3.31l3.41-1.32Z"/>
  <path class="st0" d="M302.19,64.31c-1.6.49-3.48-.67-3.26-2.33l.51-3.84c-2.2,3.57-5.48,7.69-8.69,5.96-3.42-1.86-1.53-11.76,4.93-16.68,2.82-2.15,6.79-1.98,10.4-1.17l-3.47,13.6c-.14.53.12,1.76.32,2.64l3.38-1.55c-.79,1.68-2.22,2.8-4.12,3.38ZM294.17,62.07c4.63-3.16,6.37-9.19,7.98-14.36-4.82-1.28-8.73,5.87-9.3,11.31-.11,1.07.27,2.48,1.32,3.05Z"/>
  <path class="st0" d="M170.84,61.06c-1.03,2.96-4.89,4.4-6.38,2.79-.42-.46-.84-1.69-.79-2.32l.23-2.63c-2.28,3.14-4.95,6.76-7.97,5.21-3.75-1.91-1.84-12.56,5.56-17.32,1.79-1.15,3.67-1.14,5.59-1.01l3.69.25-3.3,13.08c-.2.77.02,2.25.24,3.34l3.13-1.41ZM166.78,47.62c-1.96-.29-3.72.42-4.91,1.89-2.7,3.35-5.04,8.45-3.43,12.38,4.21-.47,7.07-9.35,8.34-14.27Z"/>
  <path class="st0" d="M347.68,62.16c2.32-.59,3.74-2.29,5.77-3.68-1.28,3.44-4.57,5.61-7.95,5.96-3.02.31-5.37-1.7-5.39-4.8-.05-8.56,7.28-16.03,12.84-13.58,2.21.97,1.96,4.02.57,5.67-2.31,2.75-5.46,4.01-9.29,4.21-.28,1.32-.34,2.93-.02,4.31s1.8,2.34,3.47,1.91ZM351.1,47.48c-2.8-.97-5.73,3.86-6.52,7.66,4.52-1.05,8.03-4,6.52-7.66Z"/>
  <path class="st0" d="M397.15,62.07c2.18-.78,3.75-2.4,5.81-3.62-2.38,4.79-8.68,7.69-12.14,4.97-3.42-2.69-.98-11.3,4.11-15.85,1.96-1.75,4.75-2.56,7.18-1.54,1.71.72,1.97,3.14,1.06,4.7-2.01,3.43-5.65,4.82-9.74,5.18-.19,1.33-.31,2.76-.17,4.03.19,1.7,2.01,2.79,3.89,2.12ZM393.57,55.12l4.05-1.28c1.97-1.66,3.66-3.85,2.62-6.44-3.2-.59-5.51,4.18-6.67,7.71Z"/>
  <path class="st0" d="M236.81,62.16c2.43-.63,3.76-2.36,5.85-3.71-1.84,4.72-8.49,7.81-11.99,4.75-3.73-3.27-.61-12.36,5.15-16.36,1.89-1.31,4.86-1.9,6.63-.34,1.92,1.7.91,4.66-.76,6.13-2.48,2.18-5.14,3.06-8.63,3.31-.21,1.6-.21,3.24.28,4.84.33,1.06,2.16,1.72,3.47,1.38ZM240.49,49.29c.14-.6-.24-1.82-.67-1.94-2.29-.65-5.34,3.74-6.41,7.64,3.16-.2,6.24-2.21,7.08-5.7Z"/>
  <path class="st0" d="M318.52,48.36c-4.16,3.86-5.73,9.88-7.32,15.7l-3.44-.11,2.52-11.07.82-4.76-3.05,1.1c1.34-2.12,4.77-4.14,6.03-3.78.44.12.82,1.3.75,1.74l-.76,4.84c1.98-3.32,5-8.27,7.23-6.43.83.68,1.02,1.93.57,3.17-.19.51-1.2,1.37-1.71,1.26s-1.07-.79-1.65-1.65Z"/>
  <path class="st0" d="M201.75,48.2c-4.23,3.26-5.65,10.19-7.23,15.79l-3.58.02,3.08-12.66.4-3.48-2.73,1.38c.7-2.4,3.2-3.21,5.3-3.9.45-.15,1.25.96,1.2,1.43l-.46,4.14c1.46-1.99,2.3-3.66,4.1-5.13.68-.55,2.26-.58,2.75-.06.62.66.82,2.21.28,3.09-.27.44-1.07,1.1-1.5,1.15-.5.06-1.07-.8-1.61-1.77Z"/>
  <path class="st0" d="M223.05,48.2c-4.42,4.54-5.4,11.99-3.08,13.64s5.43-1.18,8.14-3.38c-1.23,3.29-4.35,5.5-7.55,5.95s-5.46-1.54-5.56-4.66c-.23-7.63,6.46-15.37,12.48-13.98,1.28.3,1.85,1.56,1.64,2.71-.16.88-1.49,2.1-2.26,1.63-.28-.8-.58-2.19-1.11-2.68-.49-.46-2.19.25-2.7.78Z"/>
  <path class="st0" d="M366.02,47.29c-4.88-.53-9.01,11.13-6.59,14.09,1.93,2.36,5.61-.48,8.46-2.94-1.27,4.2-7.69,7.55-11.04,5.15-4.19-2.99-.81-11.9,3.91-15.96,3.38-2.9,7.95-2.57,8.34-.18.23,1.4-.4,2.72-2.17,2.79l-.91-2.94Z"/>
  <path class="st0" d="M28.41,85.25c1.07-4.54,3.19-8.03,3.57-12.39l-4.65,11.83-.08-9.63c-.02-2.09,1.53-4.5,2.99-5.99,1.51-.18,4.03.8,4.69,2.07,1.38,2.66.54,5.66-1.19,7.73l-5.33,6.38Z"/>
  <path class="st0" d="M213.44,60.73c-1.29,2.72-4.9,4.87-6.89,3.06-.62-.56-.99-2.2-.71-3.21l3.44-12.68-3.02,1.29c1.22-2.95,6.15-4.41,6.65-3.18.13.31.23,1.2.13,1.55l-3.07,11.13c-.34,1.23-.35,2.19-.1,3.71l3.57-1.67Z"/>
  <path class="st0" d="M215.66,35.78c1.06,1.37.25,3.69-1.6,4.86-.57.36-2.13.13-2.51-.48-1.07-1.74-.26-3.86,1.42-4.84.76-.44,2.21-.16,2.69.45Z"/>
  <path class="st0" d="M356.29,37.19l-6.89,3.88c1.64-3.75,7.32-7.11,7.79-5.8l.43,1.21c.12.34-.99.51-1.33.71Z"/>
</svg>